# xmcd
# 
# Track frame offsets:
#     150
#     12340
#     25087
#     38390
#     52172
#     64575
#     77850
#     96075
#     108600
#     122750
#     136050
#     165525
#     180075
#     200545
#     212680
#     224675
#     239025
#     252075
#     266142
#     287947
# 
# Disc length: 4006
# 
# Revision: 3
# Processed by: cddbd v1.5.2PL0 Copyright (c) Steve Scherf et al.
# Submitted via: fre:ac v1.0.27
# 
DISCID=230fa414
DTITLE=Four Tops, The - Reach Out I'll Be There
DYEAR=2002
DGENRE=Motown
TTITLE0=I Can't Help Myself
TTITLE1=Loving You Is Sweeter Than Ever
TTITLE2=Reach Out I'll Be There
TTITLE3=Bernadette
TTITLE4=Walk Away Renee
TTITLE5=Yesterday's Dreams
TTITLE6=Do What You Gotta Do
TTITLE7=It's All In The Game
TTITLE8=Still Water (Love)
TTITLE9=Simple Game
TTITLE10=MacArthur Park
TTITLE11=Cherish
TTITLE12=Four Tops, The with The Supremes - River Deep Mountain High
TTITLE13=Helpless
TTITLE14=Ask The Lonely
TTITLE15=Climb Ev'ry Mountain
TTITLE16=I Got A Feeling
TTITLE17=Just Seven Numbers (Can Straighten Out My Life)
TTITLE18=In These Changing Times
TTITLE19=For Once In My Life
EXTD=
EXTT0=
EXTT1=
EXTT2=
EXTT3=
EXTT4=
EXTT5=
EXTT6=
EXTT7=
EXTT8=
EXTT9=
EXTT10=
EXTT11=
EXTT12=
EXTT13=
EXTT14=
EXTT15=
EXTT16=
EXTT17=
EXTT18=
EXTT19=
PLAYORDER=
